<?xml version="1.0" encoding="UTF-8"?>
<svg xmlns="http://www.w3.org/2000/svg" version="1.1" viewBox="0 0 1224 792">
  <defs>
    <style>
      .cls-1 {
        fill: #1d1d1b;
      }

      .cls-1, .cls-2, .cls-3, .cls-4, .cls-5, .cls-6, .cls-7, .cls-8 {
        stroke-width: 0px;
      }

      .cls-2 {
        fill: #b980d0;
      }

      .cls-3 {
        fill: #80bc00;
      }

      .cls-4 {
        fill: #fde021;
      }

      .cls-5 {
        fill: #655dc6;
      }

      .cls-6 {
        fill: #009383;
      }

      .cls-7 {
        fill: #fff;
      }

      .cls-9 {
        display: none;
      }

      .cls-8 {
        fill: #ca6d4f;
      }
    </style>
  </defs>
  <g id="Logo_blanc" data-name="Logo blanc" class="cls-9">
    <g>
      <path class="cls-7" d="M676.3,328.1v5.3h-90.5v-5.3h22.1v-117.5c0-10.6-2-18.8-5.9-24.5-3.9-5.7-10.5-8.5-19.5-8.5s-6.2.8-10.3,2.3c-4,1.5-7.9,3.8-11.7,6.8-3.8,3-7,7-9.7,11.9-2.7,4.9-4,10.8-4,17.6v111.9h22.4v5.3h-90.8v-5.3h22.1v-120.6c0-11.1-2.4-18.9-7.2-23.3-4.8-4.4-10.1-6.6-15.9-6.6-10.1,0-19,4.4-26.6,13.3-2,2.5-3.8,5.1-5.3,7.7-1.5,2.7-2.7,5.7-3.6,9.1-.9,3.4-1.5,7.4-1.9,11.8-.4,4.4-.6,9.8-.6,16.1v92.5h22.1v5.3h-90.6v-5.3h22.2v-132.4c-.5-9-3.1-16.3-14.2-16.3s-12,3.6-14,4.7c-1.8,1-5,3.1-9.4,6.2-1.2-1.1-2.5-2.1-3.6-3.1,5.9-5.3,11.3-9.4,16.1-12.2,5-2.9,9.3-4.3,17.6-4.3s1.8,0,2.8,0h50.2v26.9h.7c1.5-2.5,3.6-5.5,6.1-8.9,2.5-3.4,5.9-6.7,10-9.8,4.2-3.1,9.2-5.9,15.2-8.2,5.9-2.3,13.1-3.4,21.4-3.4s16.2.9,22.2,2.8c5.9,1.9,10.9,4.3,14.8,7.2,3.9,2.9,7.1,6.1,9.5,9.7,2.4,3.6,4.6,7.1,6.7,10.6,3.8-6.8,8-12.2,12.7-16.1,4.7-3.9,9.4-7,14.2-9.1,4.8-2.2,9.4-3.6,13.7-4.2,4.3-.6,7.8-.9,10.6-.9,14.4,0,25.5,2.1,33.4,6.4,7.8,4.3,13.5,9.4,17,15.4,3.6,6,5.6,12.2,6.3,18.8.6,6.6.9,12.1.9,16.7v103.5h22.2Z"/>
      <path class="cls-7" d="M376.4,218.7c-4.7-10.5-11.2-19.7-19.5-27.5-.4-.3-.8-.6-1.2-.9-1.2-1.1-2.5-2.1-3.6-3.1-.3-.2-.5-.4-.8-.6-.4-.4-.9-.7-1.3-1-6.7-5.3-14.2-9.6-22.6-13.1-11.3-4.7-23.4-7-36.6-7s-25.3,2.3-36.6,7c-11.3,4.7-21,10.9-29.4,18.7-8.4,7.9-14.9,17-19.5,27.5-4.7,10.5-7,21.6-7,33.2s2.3,23.1,7,33.5c4.7,10.5,11.1,19.7,19.5,27.5,8.4,7.8,18.1,14,29.4,18.6,11.2,4.5,23.4,6.8,36.6,6.8s25.3-2.3,36.6-6.8c11.3-4.6,21-10.8,29.4-18.6,8.3-7.9,14.8-17,19.5-27.5,4.7-10.5,7-21.7,7-33.5s-2.3-22.7-7-33.2ZM331.3,281.9c-.6,9.9-2.3,18.6-4.9,26.2-2.7,7.6-6.8,13.7-12.3,18.4-5.6,4.7-13.3,7-23.1,7s-17.6-2.3-23.1-7c-5.6-4.7-9.7-10.8-12.3-18.4-2.6-7.6-4.3-16.3-5-26.2-.6-9.8-.9-19.8-.9-29.9s.3-20,.9-29.8c.7-9.7,2.3-18.4,5-26,2.7-7.6,6.8-13.7,12.3-18.4,5.5-4.7,13.3-7,23.1-7s17.6,2.3,23.1,7c5.5,4.7,9.7,10.8,12.3,18.4,2.6,7.6,4.3,16.2,4.9,26,.6,9.8.9,19.7.9,29.8s-.3,20.1-.9,29.9Z"/>
      <path class="cls-7" d="M1172.8,284.2c0,8.3-1.8,15.9-5.5,22.6-3.7,6.7-8.5,12.4-14.4,17.1-5.9,4.7-12.8,8.3-20.7,10.8-7.8,2.5-15.9,3.8-24.3,3.8s-9.5-.5-14.8-1.5c-5.3-1-10.4-2.2-15.4-3.6-4.9-1.4-9.4-2.6-13.5-3.6-4-1-7.2-1.5-9.5-1.5s-3.5.4-4.4,1.2c-.9.7-1.7,2.1-2.5,4.2h-5.3v-55h5.3c3,7.1,6.1,13.9,9.3,20.5,3.2,6.6,6.9,12.4,11.2,17.4,4.3,5.1,9.5,9.2,15.5,12.3,6.1,3.2,13.5,4.7,22.4,4.7s5.3-.1,9.1-.4c3.8-.2,7.5-1.3,11.2-3.2,3.7-1.9,6.8-4.8,9.5-8.7,2.7-3.9,4-9.5,4-16.9s-.3-4.6-.9-7c-.6-2.4-2-4.9-4-7.4-2-2.5-5-5-8.9-7.4-3.9-2.4-9.3-4.9-16.1-7.4l-30.7-11.4c-3.5-1.3-7.3-3-11.4-5.1-4.1-2.2-7.8-5-11.2-8.5-3.4-3.5-6.3-7.8-8.5-12.7-2.3-4.9-3.4-10.8-3.4-17.6s1.5-14.3,4.6-20.9c3-6.6,7.3-12.3,12.7-17.2,5.4-4.9,12-8.9,19.7-11.7,7.7-2.9,16.1-4.4,25.2-4.4s9.3.5,13.5,1.5c4.2,1,8,2.1,11.4,3.2,3.4,1.1,6.4,2.2,9.1,3.2,2.6,1,4.7,1.5,6.3,1.5,2.8,0,4.5-.5,5.3-1.5.8-1,1.4-2.1,1.9-3.4h5.3v46.3h-4.9c-2.5-6.1-5.1-11.9-7.8-17.5-2.6-5.6-5.8-10.4-9.5-14.6-3.7-4.2-8.2-7.5-13.5-9.9-5.3-2.4-11.9-3.6-19.7-3.6s-16,2.2-22.9,6.6c-7,4.4-10.4,11-10.4,19.5s.2,3.8.8,6.1c.5,2.3,1.6,4.6,3.4,7,1.8,2.4,4.5,4.8,8.3,7.2,3.8,2.4,8.8,4.7,15.2,7l32.2,11c13.7,4.8,24,11.1,31.1,19,7.1,7.8,10.6,17.8,10.6,30h0Z"/>
      <path class="cls-7" d="M1037.6,169.9c-3.6-3.7-7.6-5.8-12.3-5.8s-3.3.2-5,.7c-1.7.5-3.2,1.3-4.6,2.4-1.4,1.1-2.5,2.5-3.4,4.2-.9,1.7-1.3,3.7-1.3,6.2s.4,4.4,1.3,6.2c.9,1.7,2,3.1,3.2,4.2,1.3,1.1,2.7,1.9,4.3,2.4,1.6.5,2.3.7,3.6.7s2.3-.1,3.7-.4c1.4-.2,2.2-.9,3.3-1.7.7.6,1.3,1.6,1.9,2.8.7,1.3,1,2.9,1,5,0,4.5-1.9,8.6-5.5,12.2-3.2,3.1-10,8.4-15.8,12.5-.4-.9-.7-1.8-1.1-2.7-4.7-10.5-11.2-19.7-19.5-27.5-8.3-7.8-18.1-14.1-29.4-18.7-11.2-4.7-23.4-7-36.6-7s-25.3,2.3-36.6,7c-11.3,4.7-21.1,10.9-29.4,18.7-8.3,7.9-14.8,17-19.5,27.5-4.7,10.5-7,21.6-7,33.2s2.3,23.1,7,33.5c4.7,10.5,11.2,19.7,19.5,27.5,8.4,7.8,18.2,14,29.4,18.6,11.2,4.5,23.4,6.8,36.6,6.8s25.3-2.3,36.6-6.8c11.3-4.6,21.1-10.8,29.4-18.6,8.3-7.9,14.9-17,19.5-27.5,4.7-10.5,7-21.7,7-33.5s-1.5-18.2-4.5-26.7c3.1-1.9,8.5-5.6,11.3-7.6,3.2-2.2,6-5,8.8-7.8,14.3-14.1,9.4-34.6,4.3-39.9ZM965.6,281.9c-.6,9.9-2.3,18.6-5,26.2-2.6,7.6-6.8,13.7-12.3,18.4-5.6,4.7-13.3,7-23.2,7s-17.6-2.3-23.1-7c-5.5-4.7-9.7-10.8-12.3-18.4-2.6-7.6-4.3-16.3-4.9-26.2-.6-9.8-.9-19.8-.9-29.9s.3-20,.9-29.8c.6-9.7,2.3-18.4,4.9-26,2.7-7.6,6.8-13.7,12.3-18.4,5.6-4.7,13.3-7,23.1-7s17.6,2.3,23.2,7c5.5,4.7,9.7,10.8,12.3,18.4,2.7,7.6,4.3,16.2,5,26,.6,9.8.9,19.7.9,29.8s-.3,20.1-.9,29.9Z"/>
      <path class="cls-7" d="M803.6,270.3c-6,0-11.1,2.2-15.4,6.5-4.3,4.3-6.5,9.5-6.5,15.4s2.2,11.1,6.5,15.4c4.3,4.3,9.7,6.5,15.7,6.5-.9,4.5-15.7,19.3-40.4,19.3s-20.2-2.4-26.5-7.2c-6.3-4.8-11.1-11-14.4-18.4-3.3-7.4-5.3-15.8-6.1-25-.7-9.2-1.1-18.4-1.1-27.5v-17.1h111.9c0-12.9-2.3-24-6.8-33.2-4.6-9.2-10.4-16.7-17.5-22.6-7.1-5.8-15-10.1-23.9-12.9-8.9-2.8-17.7-4.2-26.6-4.2s-24,2.5-34.7,7.4c-10.8,4.9-20.1,11.4-28.1,19.4-7.9,7.9-14.2,17.1-18.8,27.5-4.6,10.4-6.8,21-6.8,31.9s2.4,25.8,7.2,36.6c4.8,10.7,11.4,19.9,19.9,27.3,8.5,7.5,18.4,13.2,29.8,17.1,11.4,3.9,23.6,5.9,36.8,5.9,37.7,0,67.7-21,67.7-46.2s-2.1-11.1-6.5-15.4c-4.3-4.3-9.5-6.5-15.4-6.5ZM716.6,212.3c.6-7.2,2.1-13.9,4.4-20.1,2.3-6.2,5.7-11.3,10.4-15.4,4.7-4,11.3-6.1,19.9-6.1s10.8,1.4,14.2,4.2,5.9,6.2,7.4,10.2c1.5,4.1,2.4,8.1,2.6,12.2.3,4,.4,7.4.4,10.2v25.4h-60.7c.2-6.6.7-13.5,1.3-20.7Z"/>
      <path class="cls-7" d="M188.2,213.9c-13.7,0-22.6-5.9-22.8-20.2,0-8.4,9.5-13.6,2.3-12.6-8.4,1.2-15,6.7-19.5,20.1-2.5,7.6-3.7,26.1-3.7,55.6v71.3h22.4v5.3h-95.7v-5.3h22.2v-133.9c-.7-8.3-3.6-14.8-14.1-14.8s-12,3.6-14,4.7c-2,1.1-5.5,3.5-10.6,7l-3.4-3c6.3-5.8,12-10.2,17.1-13.1,5.1-2.9,9.3-4.3,17.6-4.3h57.1v28.7c4.8-12.2,10-20.9,15.7-25.9,5.7-5,13.1-7.5,22.2-7.5,20.4,0,29.2,13.5,29.2,24.9s-12.2,23-21.9,23h0Z"/>
      <path class="cls-7" d="M1031.5,528.9v-106.9c0-16.7-4.6-29.9-13.8-39.5-9.2-9.6-22.2-14.4-38.9-14.4s-20.9,1.7-28.4,5.1c-7.6,3.4-13.8,7.4-18.6,11.9-4.8,4.5-8.5,9.2-11,13.8-2.5,4.7-4.3,8.2-5.3,10.5h-.7v-37.9h-40c-8.4,0-23.6.2-30.5,4.3-4.9,2.9-2.5.8-8.7,6.4v6.4c2-1.2,9-9.2,19.7-8.5,10,.7,13.1,6,14,13.9v134.7h-41.7v-157.3h-51.3c-8.3,0-15,1.4-20.1,4.3-4.7,2.7-10.1,6.8-15.9,12.1-.4-.4-.8-.9-1.1-1.3l-3.4-3c-5.8-4.6-12.8-8.6-21-12.1-8.2-3.6-18-5.3-29.4-5.3s-21.7,1.5-30.9,4.5c-9.2,3-17,7.2-23.3,12.4-6.3,5.2-11.2,11.2-14.6,18.2-3.4,6.9-5.1,14.3-5.1,22.1s.8,10.4,2.5,14.6c1.6,4.2,3.6,7.9,6,11,2.4,3.2,5,6,7.8,8.3,2.8,2.4,5.3,4.5,7.6,6.3-7.8,4.3-14.1,8.9-18.8,13.7-4.7,4.8-8.2,9.4-10.4,13.8-2.3,4.4-3.7,8.3-4.4,11.6-.6,3.3-.9,5.5-.9,6.8,0,7.9,1.9,14.4,5.7,19.7,3.8,5.3,8.5,9.5,14.1,12.5,5.5,3.1,11.5,5.2,18,6.5,6.5,1.2,15.2,2.6,24.8,2.6h39.4c3.8,0,8,.5,12.5,1.5,4.6,1,8.7,2.9,12.5,5.7,3.8,2.8,6.9,6.5,9.5,11.2,2.5,4.7,3.8,10.8,3.8,18.4s-1.5,14.5-4.5,20.9c-1,2-8.4,14.8-19.9,22.9h14.1s13.4-9.5,19-17c4.8-5.6,8.6-11.7,11.5-18.4,4.1-9.3,6.1-18.9,6.1-28.8s-2-21.3-6.1-29c-.7-1.4-1.5-2.7-2.4-4h179.1v-5.3h-22.2v-81.1c0-11.6,1.3-21.7,3.8-30.3,2.5-8.6,5.9-15.8,10-21.6,4.2-5.8,9-10.2,14.6-13.1,5.5-2.9,11.4-4.3,17.4-4.3s13.2,2.4,17.5,7.4c4.3,4.9,6.4,12.7,6.4,23.3v119.8h-22.1v5.3h90.7v-5.3h-22.3ZM654,399.7c.7-5.5,2.2-10.5,4.4-14.8,2.1-4.3,5.2-7.8,9.3-10.4,4.1-2.7,9.2-4,15.6-4s12.1,1.3,15.9,3.8c3.8,2.5,6.7,6.1,8.7,10.6,2,4.5,3.3,9.9,3.8,16.1.5,6.2.8,13,.8,20.3,0,10.4-.7,18.8-2.1,25.2-1.4,6.4-3.3,11.4-5.9,14.8-2.5,3.4-5.6,5.7-9.1,6.8-3.5,1.1-7.6,1.7-12.1,1.7s-8.4-.5-12.1-1.5c-3.8-1-7-3.3-9.7-7-2.6-3.7-4.7-9-6.3-16.1-1.5-7.1-2.3-16.5-2.3-28.5s.4-11.5,1.1-17ZM781.2,528.9h-25.8s-6.3-7.3-10.4-10.2c-6.6-4.5-14.2-7.8-22.9-9.7-8.7-1.9-17.9-2.8-27.5-2.8h-41.7c-8.6,0-15.4-1.5-20.5-4.5-5-3-7.6-7.7-7.6-14s.6-5.9,1.9-9.3c1.3-3.4,5.5-7.5,12.9-12.3,5,2,11.5,4.1,19.3,6.1,7.9,2,16.8,3.1,26.9,3.1s23.3-1.6,31.9-4.7c8.6-3.2,15.6-7.3,21-12.3,5.5-5,9.4-10.7,11.8-16.9,2.4-6.2,3.6-12.5,3.6-18.8,0-10.3-1.8-18.2-5.3-23.7-2-3.1-3.9-5.8-5.8-8.2,4.7-3.3,8.1-5.5,10-6.6,2-1.1,7.5-4.7,14-4.7,11,0,13.7,7.3,14.2,16.3v133.4Z"/>
    </g>
  </g>
  <g id="Logo_noir" data-name="Logo noir">
    <g>
      <path class="cls-1" d="M676.3,328.1v5.3h-90.5v-5.3h22.1v-117.5c0-10.6-2-18.8-5.9-24.5-3.9-5.7-10.5-8.5-19.5-8.5s-6.2.8-10.3,2.3c-4,1.5-7.9,3.8-11.7,6.8-3.8,3-7,7-9.7,11.9-2.7,4.9-4,10.8-4,17.6v111.9h22.4v5.3h-90.8v-5.3h22.1v-120.6c0-11.1-2.4-18.9-7.2-23.3-4.8-4.4-10.1-6.6-15.9-6.6-10.1,0-19,4.4-26.6,13.3-2,2.5-3.8,5.1-5.3,7.7-1.5,2.7-2.7,5.7-3.6,9.1-.9,3.4-1.5,7.4-1.9,11.8-.4,4.4-.6,9.8-.6,16.1v92.5h22.1v5.3h-90.6v-5.3h22.2v-132.4c-.5-9-3.1-16.3-14.2-16.3s-12,3.6-14,4.7c-1.8,1-5,3.1-9.4,6.2-1.2-1.1-2.5-2.1-3.6-3.1,5.9-5.3,11.3-9.4,16.1-12.2,5-2.9,9.3-4.3,17.6-4.3s1.8,0,2.8,0h50.2v26.9h.7c1.5-2.5,3.6-5.5,6.1-8.9,2.5-3.4,5.9-6.7,10-9.8,4.2-3.1,9.2-5.9,15.2-8.2,5.9-2.3,13.1-3.4,21.4-3.4s16.2.9,22.2,2.8c5.9,1.9,10.9,4.3,14.8,7.2,3.9,2.9,7.1,6.1,9.5,9.7,2.4,3.6,4.6,7.1,6.7,10.6,3.8-6.8,8-12.2,12.7-16.1,4.7-3.9,9.4-7,14.2-9.1,4.8-2.2,9.4-3.6,13.7-4.2,4.3-.6,7.8-.9,10.6-.9,14.4,0,25.5,2.1,33.4,6.4,7.8,4.3,13.5,9.4,17,15.4,3.6,6,5.6,12.2,6.3,18.8.6,6.6.9,12.1.9,16.7v103.5h22.2Z"/>
      <path class="cls-1" d="M376.4,218.7c-4.7-10.5-11.2-19.7-19.5-27.5-.4-.3-.8-.6-1.2-.9-1.2-1.1-2.5-2.1-3.6-3.1-.3-.2-.5-.4-.8-.6-.4-.4-.9-.7-1.3-1-6.7-5.3-14.2-9.6-22.6-13.1-11.3-4.7-23.4-7-36.6-7s-25.3,2.3-36.6,7c-11.3,4.7-21,10.9-29.4,18.7-8.4,7.9-14.9,17-19.5,27.5-4.7,10.5-7,21.6-7,33.2s2.3,23.1,7,33.5c4.7,10.5,11.1,19.7,19.5,27.5,8.4,7.8,18.1,14,29.4,18.6,11.2,4.5,23.4,6.8,36.6,6.8s25.3-2.3,36.6-6.8c11.3-4.6,21-10.8,29.4-18.6,8.3-7.9,14.8-17,19.5-27.5,4.7-10.5,7-21.7,7-33.5s-2.3-22.7-7-33.2ZM331.3,281.9c-.6,9.9-2.3,18.6-4.9,26.2-2.7,7.6-6.8,13.7-12.3,18.4-5.6,4.7-13.3,7-23.1,7s-17.6-2.3-23.1-7c-5.6-4.7-9.7-10.8-12.3-18.4-2.6-7.6-4.3-16.3-5-26.2-.6-9.8-.9-19.8-.9-29.9s.3-20,.9-29.8c.7-9.7,2.3-18.4,5-26,2.7-7.6,6.8-13.7,12.3-18.4,5.5-4.7,13.3-7,23.1-7s17.6,2.3,23.1,7c5.5,4.7,9.7,10.8,12.3,18.4,2.6,7.6,4.3,16.2,4.9,26,.6,9.8.9,19.7.9,29.8s-.3,20.1-.9,29.9Z"/>
      <path class="cls-1" d="M1172.8,284.2c0,8.3-1.8,15.9-5.5,22.6-3.7,6.7-8.5,12.4-14.4,17.1-5.9,4.7-12.8,8.3-20.7,10.8-7.8,2.5-15.9,3.8-24.3,3.8s-9.5-.5-14.8-1.5c-5.3-1-10.4-2.2-15.4-3.6-4.9-1.4-9.4-2.6-13.5-3.6-4-1-7.2-1.5-9.5-1.5s-3.5.4-4.4,1.2c-.9.7-1.7,2.1-2.5,4.2h-5.3v-55h5.3c3,7.1,6.1,13.9,9.3,20.5,3.2,6.6,6.9,12.4,11.2,17.4,4.3,5.1,9.5,9.2,15.5,12.3,6.1,3.2,13.5,4.7,22.4,4.7s5.3-.1,9.1-.4c3.8-.2,7.5-1.3,11.2-3.2,3.7-1.9,6.8-4.8,9.5-8.7,2.7-3.9,4-9.5,4-16.9s-.3-4.6-.9-7c-.6-2.4-2-4.9-4-7.4-2-2.5-5-5-8.9-7.4-3.9-2.4-9.3-4.9-16.1-7.4l-30.7-11.4c-3.5-1.3-7.3-3-11.4-5.1-4.1-2.2-7.8-5-11.2-8.5-3.4-3.5-6.3-7.8-8.5-12.7-2.3-4.9-3.4-10.8-3.4-17.6s1.5-14.3,4.6-20.9c3-6.6,7.3-12.3,12.7-17.2,5.4-4.9,12-8.9,19.7-11.7,7.7-2.9,16.1-4.4,25.2-4.4s9.3.5,13.5,1.5c4.2,1,8,2.1,11.4,3.2,3.4,1.1,6.4,2.2,9.1,3.2,2.6,1,4.7,1.5,6.3,1.5,2.8,0,4.5-.5,5.3-1.5.8-1,1.4-2.1,1.9-3.4h5.3v46.3h-4.9c-2.5-6.1-5.1-11.9-7.8-17.5-2.6-5.6-5.8-10.4-9.5-14.6-3.7-4.2-8.2-7.5-13.5-9.9-5.3-2.4-11.9-3.6-19.7-3.6s-16,2.2-22.9,6.6c-7,4.4-10.4,11-10.4,19.5s.2,3.8.8,6.1c.5,2.3,1.6,4.6,3.4,7,1.8,2.4,4.5,4.8,8.3,7.2,3.8,2.4,8.8,4.7,15.2,7l32.2,11c13.7,4.8,24,11.1,31.1,19,7.1,7.8,10.6,17.8,10.6,30h0Z"/>
      <path class="cls-1" d="M1037.6,169.9c-3.6-3.7-7.6-5.8-12.3-5.8s-3.3.2-5,.7c-1.7.5-3.2,1.3-4.6,2.4-1.4,1.1-2.5,2.5-3.4,4.2-.9,1.7-1.3,3.7-1.3,6.2s.4,4.4,1.3,6.2c.9,1.7,2,3.1,3.2,4.2,1.3,1.1,2.7,1.9,4.3,2.4,1.6.5,2.3.7,3.6.7s2.3-.1,3.7-.4c1.4-.2,2.2-.9,3.3-1.7.7.6,1.3,1.6,1.9,2.8.7,1.3,1,2.9,1,5,0,4.5-1.9,8.6-5.5,12.2-3.2,3.1-10,8.4-15.8,12.5-.4-.9-.7-1.8-1.1-2.7-4.7-10.5-11.2-19.7-19.5-27.5-8.3-7.8-18.1-14.1-29.4-18.7-11.2-4.7-23.4-7-36.6-7s-25.3,2.3-36.6,7c-11.3,4.7-21.1,10.9-29.4,18.7-8.3,7.9-14.8,17-19.5,27.5-4.7,10.5-7,21.6-7,33.2s2.3,23.1,7,33.5c4.7,10.5,11.2,19.7,19.5,27.5,8.4,7.8,18.2,14,29.4,18.6,11.2,4.5,23.4,6.8,36.6,6.8s25.3-2.3,36.6-6.8c11.3-4.6,21.1-10.8,29.4-18.6,8.3-7.9,14.9-17,19.5-27.5,4.7-10.5,7-21.7,7-33.5s-1.5-18.2-4.5-26.7c3.1-1.9,8.5-5.6,11.3-7.6,3.2-2.2,6-5,8.8-7.8,14.3-14.1,9.4-34.6,4.3-39.9ZM965.6,281.9c-.6,9.9-2.3,18.6-5,26.2-2.6,7.6-6.8,13.7-12.3,18.4-5.6,4.7-13.3,7-23.2,7s-17.6-2.3-23.1-7c-5.5-4.7-9.7-10.8-12.3-18.4-2.6-7.6-4.3-16.3-4.9-26.2-.6-9.8-.9-19.8-.9-29.9s.3-20,.9-29.8c.6-9.7,2.3-18.4,4.9-26,2.7-7.6,6.8-13.7,12.3-18.4,5.6-4.7,13.3-7,23.1-7s17.6,2.3,23.2,7c5.5,4.7,9.7,10.8,12.3,18.4,2.7,7.6,4.3,16.2,5,26,.6,9.8.9,19.7.9,29.8s-.3,20.1-.9,29.9Z"/>
      <path class="cls-1" d="M803.6,270.3c-6,0-11.1,2.2-15.4,6.5-4.3,4.3-6.5,9.5-6.5,15.4s2.2,11.1,6.5,15.4c4.3,4.3,9.7,6.5,15.7,6.5-.9,4.5-15.7,19.3-40.4,19.3s-20.2-2.4-26.5-7.2c-6.3-4.8-11.1-11-14.4-18.4-3.3-7.4-5.3-15.8-6.1-25-.7-9.2-1.1-18.4-1.1-27.5v-17.1h111.9c0-12.9-2.3-24-6.8-33.2-4.6-9.2-10.4-16.7-17.5-22.6-7.1-5.8-15-10.1-23.9-12.9-8.9-2.8-17.7-4.2-26.6-4.2s-24,2.5-34.7,7.4c-10.8,4.9-20.1,11.4-28.1,19.4-7.9,7.9-14.2,17.1-18.8,27.5-4.6,10.4-6.8,21-6.8,31.9s2.4,25.8,7.2,36.6c4.8,10.7,11.4,19.9,19.9,27.3,8.5,7.5,18.4,13.2,29.8,17.1,11.4,3.9,23.6,5.9,36.8,5.9,37.7,0,67.7-21,67.7-46.2s-2.1-11.1-6.5-15.4c-4.3-4.3-9.5-6.5-15.4-6.5ZM716.6,212.3c.6-7.2,2.1-13.9,4.4-20.1,2.3-6.2,5.7-11.3,10.4-15.4,4.7-4,11.3-6.1,19.9-6.1s10.8,1.4,14.2,4.2,5.9,6.2,7.4,10.2c1.5,4.1,2.4,8.1,2.6,12.2.3,4,.4,7.4.4,10.2v25.4h-60.7c.2-6.6.7-13.5,1.3-20.7Z"/>
      <path class="cls-1" d="M188.2,213.9c-13.7,0-22.6-5.9-22.8-20.2,0-8.4,9.5-13.6,2.3-12.6-8.4,1.2-15,6.7-19.5,20.1-2.5,7.6-3.7,26.1-3.7,55.6v71.3h22.4v5.3h-95.7v-5.3h22.2v-133.9c-.7-8.3-3.6-14.8-14.1-14.8s-12,3.6-14,4.7c-2,1.1-5.5,3.5-10.6,7l-3.4-3c6.3-5.8,12-10.2,17.1-13.1,5.1-2.9,9.3-4.3,17.6-4.3h57.1v28.7c4.8-12.2,10-20.9,15.7-25.9,5.7-5,13.1-7.5,22.2-7.5,20.4,0,29.2,13.5,29.2,24.9s-12.2,23-21.9,23h0Z"/>
      <path class="cls-1" d="M1031.5,528.9v-106.9c0-16.7-4.6-29.9-13.8-39.5-9.2-9.6-22.2-14.4-38.9-14.4s-20.9,1.7-28.4,5.1c-7.6,3.4-13.8,7.4-18.6,11.9-4.8,4.5-8.5,9.2-11,13.8-2.5,4.7-4.3,8.2-5.3,10.5h-.7v-37.9h-40c-8.4,0-23.6.2-30.5,4.3-4.9,2.9-2.5.8-8.7,6.4v6.4c2-1.2,9-9.2,19.7-8.5,10,.7,13.1,6,14,13.9v134.7h-41.7v-157.3h-51.3c-8.3,0-15,1.4-20.1,4.3-4.7,2.7-10.1,6.8-15.9,12.1-.4-.4-.8-.9-1.1-1.3l-3.4-3c-5.8-4.6-12.8-8.6-21-12.1-8.2-3.6-18-5.3-29.4-5.3s-21.7,1.5-30.9,4.5c-9.2,3-17,7.2-23.3,12.4-6.3,5.2-11.2,11.2-14.6,18.2-3.4,6.9-5.1,14.3-5.1,22.1s.8,10.4,2.5,14.6c1.6,4.2,3.6,7.9,6,11,2.4,3.2,5,6,7.8,8.3,2.8,2.4,5.3,4.5,7.6,6.3-7.8,4.3-14.1,8.9-18.8,13.7-4.7,4.8-8.2,9.4-10.4,13.8-2.3,4.4-3.7,8.3-4.4,11.6-.6,3.3-.9,5.5-.9,6.8,0,7.9,1.9,14.4,5.7,19.7,3.8,5.3,8.5,9.5,14.1,12.5,5.5,3.1,11.5,5.2,18,6.5,6.5,1.2,15.2,2.6,24.8,2.6h39.4c3.8,0,8,.5,12.5,1.5,4.6,1,8.7,2.9,12.5,5.7,3.8,2.8,6.9,6.5,9.5,11.2,2.5,4.7,3.8,10.8,3.8,18.4s-1.5,14.5-4.5,20.9c-1,2-8.4,14.8-19.9,22.9h14.1s13.4-9.5,19-17c4.8-5.6,8.6-11.7,11.5-18.4,4.1-9.3,6.1-18.9,6.1-28.8s-2-21.3-6.1-29c-.7-1.4-1.5-2.7-2.4-4h179.1v-5.3h-22.2v-81.1c0-11.6,1.3-21.7,3.8-30.3,2.5-8.6,5.9-15.8,10-21.6,4.2-5.8,9-10.2,14.6-13.1,5.5-2.9,11.4-4.3,17.4-4.3s13.2,2.4,17.5,7.4c4.3,4.9,6.4,12.7,6.4,23.3v119.8h-22.1v5.3h90.7v-5.3h-22.3ZM654,399.7c.7-5.5,2.2-10.5,4.4-14.8,2.1-4.3,5.2-7.8,9.3-10.4,4.1-2.7,9.2-4,15.6-4s12.1,1.3,15.9,3.8c3.8,2.5,6.7,6.1,8.7,10.6,2,4.5,3.3,9.9,3.8,16.1.5,6.2.8,13,.8,20.3,0,10.4-.7,18.8-2.1,25.2-1.4,6.4-3.3,11.4-5.9,14.8-2.5,3.4-5.6,5.7-9.1,6.8-3.5,1.1-7.6,1.7-12.1,1.7s-8.4-.5-12.1-1.5c-3.8-1-7-3.3-9.7-7-2.6-3.7-4.7-9-6.3-16.1-1.5-7.1-2.3-16.5-2.3-28.5s.4-11.5,1.1-17ZM781.2,528.9h-25.8s-6.3-7.3-10.4-10.2c-6.6-4.5-14.2-7.8-22.9-9.7-8.7-1.9-17.9-2.8-27.5-2.8h-41.7c-8.6,0-15.4-1.5-20.5-4.5-5-3-7.6-7.7-7.6-14s.6-5.9,1.9-9.3c1.3-3.4,5.5-7.5,12.9-12.3,5,2,11.5,4.1,19.3,6.1,7.9,2,16.8,3.1,26.9,3.1s23.3-1.6,31.9-4.7c8.6-3.2,15.6-7.3,21-12.3,5.5-5,9.4-10.7,11.8-16.9,2.4-6.2,3.6-12.5,3.6-18.8,0-10.3-1.8-18.2-5.3-23.7-2-3.1-3.9-5.8-5.8-8.2,4.7-3.3,8.1-5.5,10-6.6,2-1.1,7.5-4.7,14-4.7,11,0,13.7,7.3,14.2,16.3v133.4Z"/>
    </g>
  </g>
  <g id="Logo_couleur" data-name="Logo couleur" class="cls-9">
    <g>
      <path class="cls-6" d="M676.3,328.1v5.3h-90.5v-5.3h22.1v-117.5c0-10.6-2-18.8-5.9-24.5-3.9-5.7-10.5-8.5-19.5-8.5s-6.2.8-10.3,2.3c-4,1.5-7.9,3.8-11.7,6.8-3.8,3-7,7-9.7,11.9-2.7,4.9-4,10.8-4,17.6v111.9h22.4v5.3h-90.8v-5.3h22.1v-120.6c0-11.1-2.4-18.9-7.2-23.3-4.8-4.4-10.1-6.6-15.9-6.6-10.1,0-19,4.4-26.6,13.3-2,2.5-3.8,5.1-5.3,7.7-1.5,2.7-2.7,5.7-3.6,9.1-.9,3.4-1.5,7.4-1.9,11.8-.4,4.4-.6,9.8-.6,16.1v92.5h22.1v5.3h-90.6v-5.3h22.2v-132.4c-.5-9-3.1-16.3-14.2-16.3s-12,3.6-14,4.7c-1.8,1-5,3.1-9.4,6.2-1.2-1.1-2.5-2.1-3.6-3.1,5.9-5.3,11.3-9.4,16.1-12.2,5-2.9,9.3-4.3,17.6-4.3s1.8,0,2.8,0h50.2v26.9h.7c1.5-2.5,3.6-5.5,6.1-8.9,2.5-3.4,5.9-6.7,10-9.8,4.2-3.1,9.2-5.9,15.2-8.2,5.9-2.3,13.1-3.4,21.4-3.4s16.2.9,22.2,2.8c5.9,1.9,10.9,4.3,14.8,7.2,3.9,2.9,7.1,6.1,9.5,9.7,2.4,3.6,4.6,7.1,6.7,10.6,3.8-6.8,8-12.2,12.7-16.1,4.7-3.9,9.4-7,14.2-9.1,4.8-2.2,9.4-3.6,13.7-4.2,4.3-.6,7.8-.9,10.6-.9,14.4,0,25.5,2.1,33.4,6.4,7.8,4.3,13.5,9.4,17,15.4,3.6,6,5.6,12.2,6.3,18.8.6,6.6.9,12.1.9,16.7v103.5h22.2Z"/>
      <path class="cls-3" d="M376.4,218.7c-4.7-10.5-11.2-19.7-19.5-27.5-.4-.3-.8-.6-1.2-.9-1.2-1.1-2.5-2.1-3.6-3.1-.3-.2-.5-.4-.8-.6-.4-.4-.9-.7-1.3-1-6.7-5.3-14.2-9.6-22.6-13.1-11.3-4.7-23.4-7-36.6-7s-25.3,2.3-36.6,7c-11.3,4.7-21,10.9-29.4,18.7-8.4,7.9-14.9,17-19.5,27.5-4.7,10.5-7,21.6-7,33.2s2.3,23.1,7,33.5c4.7,10.5,11.1,19.7,19.5,27.5,8.4,7.8,18.1,14,29.4,18.6,11.2,4.5,23.4,6.8,36.6,6.8s25.3-2.3,36.6-6.8c11.3-4.6,21-10.8,29.4-18.6,8.3-7.9,14.8-17,19.5-27.5,4.7-10.5,7-21.7,7-33.5s-2.3-22.7-7-33.2ZM331.3,281.9c-.6,9.9-2.3,18.6-4.9,26.2-2.7,7.6-6.8,13.7-12.3,18.4-5.6,4.7-13.3,7-23.1,7s-17.6-2.3-23.1-7c-5.6-4.7-9.7-10.8-12.3-18.4-2.6-7.6-4.3-16.3-5-26.2-.6-9.8-.9-19.8-.9-29.9s.3-20,.9-29.8c.7-9.7,2.3-18.4,5-26,2.7-7.6,6.8-13.7,12.3-18.4,5.5-4.7,13.3-7,23.1-7s17.6,2.3,23.1,7c5.5,4.7,9.7,10.8,12.3,18.4,2.6,7.6,4.3,16.2,4.9,26,.6,9.8.9,19.7.9,29.8s-.3,20.1-.9,29.9Z"/>
      <path class="cls-8" d="M1172.8,284.2c0,8.3-1.8,15.9-5.5,22.6-3.7,6.7-8.5,12.4-14.4,17.1-5.9,4.7-12.8,8.3-20.7,10.8-7.8,2.5-15.9,3.8-24.3,3.8s-9.5-.5-14.8-1.5c-5.3-1-10.4-2.2-15.4-3.6-4.9-1.4-9.4-2.6-13.5-3.6-4-1-7.2-1.5-9.5-1.5s-3.5.4-4.4,1.2c-.9.7-1.7,2.1-2.5,4.2h-5.3v-55h5.3c3,7.1,6.1,13.9,9.3,20.5,3.2,6.6,6.9,12.4,11.2,17.4,4.3,5.1,9.5,9.2,15.5,12.3,6.1,3.2,13.5,4.7,22.4,4.7s5.3-.1,9.1-.4c3.8-.2,7.5-1.3,11.2-3.2,3.7-1.9,6.8-4.8,9.5-8.7,2.7-3.9,4-9.5,4-16.9s-.3-4.6-.9-7c-.6-2.4-2-4.9-4-7.4-2-2.5-5-5-8.9-7.4-3.9-2.4-9.3-4.9-16.1-7.4l-30.7-11.4c-3.5-1.3-7.3-3-11.4-5.1-4.1-2.2-7.8-5-11.2-8.5-3.4-3.5-6.3-7.8-8.5-12.7-2.3-4.9-3.4-10.8-3.4-17.6s1.5-14.3,4.6-20.9c3-6.6,7.3-12.3,12.7-17.2,5.4-4.9,12-8.9,19.7-11.7,7.7-2.9,16.1-4.4,25.2-4.4s9.3.5,13.5,1.5c4.2,1,8,2.1,11.4,3.2,3.4,1.1,6.4,2.2,9.1,3.2,2.6,1,4.7,1.5,6.3,1.5,2.8,0,4.5-.5,5.3-1.5.8-1,1.4-2.1,1.9-3.4h5.3v46.3h-4.9c-2.5-6.1-5.1-11.9-7.8-17.5-2.6-5.6-5.8-10.4-9.5-14.6-3.7-4.2-8.2-7.5-13.5-9.9-5.3-2.4-11.9-3.6-19.7-3.6s-16,2.2-22.9,6.6c-7,4.4-10.4,11-10.4,19.5s.2,3.8.8,6.1c.5,2.3,1.6,4.6,3.4,7,1.8,2.4,4.5,4.8,8.3,7.2,3.8,2.4,8.8,4.7,15.2,7l32.2,11c13.7,4.8,24,11.1,31.1,19,7.1,7.8,10.6,17.8,10.6,30h0Z"/>
      <path class="cls-2" d="M1037.6,169.9c-3.6-3.7-7.6-5.8-12.3-5.8s-3.3.2-5,.7c-1.7.5-3.2,1.3-4.6,2.4-1.4,1.1-2.5,2.5-3.4,4.2-.9,1.7-1.3,3.7-1.3,6.2s.4,4.4,1.3,6.2c.9,1.7,2,3.1,3.2,4.2,1.3,1.1,2.7,1.9,4.3,2.4,1.6.5,2.3.7,3.6.7s2.3-.1,3.7-.4c1.4-.2,2.2-.9,3.3-1.7.7.6,1.3,1.6,1.9,2.8.7,1.3,1,2.9,1,5,0,4.5-1.9,8.6-5.5,12.2-3.2,3.1-10,8.4-15.8,12.5-.4-.9-.7-1.8-1.1-2.7-4.7-10.5-11.2-19.7-19.5-27.5-8.3-7.8-18.1-14.1-29.4-18.7-11.2-4.7-23.4-7-36.6-7s-25.3,2.3-36.6,7c-11.3,4.7-21.1,10.9-29.4,18.7-8.3,7.9-14.8,17-19.5,27.5-4.7,10.5-7,21.6-7,33.2s2.3,23.1,7,33.5c4.7,10.5,11.2,19.7,19.5,27.5,8.4,7.8,18.2,14,29.4,18.6,11.2,4.5,23.4,6.8,36.6,6.8s25.3-2.3,36.6-6.8c11.3-4.6,21.1-10.8,29.4-18.6,8.3-7.9,14.9-17,19.5-27.5,4.7-10.5,7-21.7,7-33.5s-1.5-18.2-4.5-26.7c3.1-1.9,8.5-5.6,11.3-7.6,3.2-2.2,6-5,8.8-7.8,14.3-14.1,9.4-34.6,4.3-39.9ZM965.6,281.9c-.6,9.9-2.3,18.6-5,26.2-2.6,7.6-6.8,13.7-12.3,18.4-5.6,4.7-13.3,7-23.2,7s-17.6-2.3-23.1-7c-5.5-4.7-9.7-10.8-12.3-18.4-2.6-7.6-4.3-16.3-4.9-26.2-.6-9.8-.9-19.8-.9-29.9s.3-20,.9-29.8c.6-9.7,2.3-18.4,4.9-26,2.7-7.6,6.8-13.7,12.3-18.4,5.6-4.7,13.3-7,23.1-7s17.6,2.3,23.2,7c5.5,4.7,9.7,10.8,12.3,18.4,2.7,7.6,4.3,16.2,5,26,.6,9.8.9,19.7.9,29.8s-.3,20.1-.9,29.9Z"/>
      <path class="cls-5" d="M803.6,270.3c-6,0-11.1,2.2-15.4,6.5-4.3,4.3-6.5,9.5-6.5,15.4s2.2,11.1,6.5,15.4c4.3,4.3,9.7,6.5,15.7,6.5-.9,4.5-15.7,19.3-40.4,19.3s-20.2-2.4-26.5-7.2c-6.3-4.8-11.1-11-14.4-18.4-3.3-7.4-5.3-15.8-6.1-25-.7-9.2-1.1-18.4-1.1-27.5v-17.1h111.9c0-12.9-2.3-24-6.8-33.2-4.6-9.2-10.4-16.7-17.5-22.6-7.1-5.8-15-10.1-23.9-12.9-8.9-2.8-17.7-4.2-26.6-4.2s-24,2.5-34.7,7.4c-10.8,4.9-20.1,11.4-28.1,19.4-7.9,7.9-14.2,17.1-18.8,27.5-4.6,10.4-6.8,21-6.8,31.9s2.4,25.8,7.2,36.6c4.8,10.7,11.4,19.9,19.9,27.3,8.5,7.5,18.4,13.2,29.8,17.1,11.4,3.9,23.6,5.9,36.8,5.9,37.7,0,67.7-21,67.7-46.2s-2.1-11.1-6.5-15.4c-4.3-4.3-9.5-6.5-15.4-6.5ZM716.6,212.3c.6-7.2,2.1-13.9,4.4-20.1,2.3-6.2,5.7-11.3,10.4-15.4,4.7-4,11.3-6.1,19.9-6.1s10.8,1.4,14.2,4.2,5.9,6.2,7.4,10.2c1.5,4.1,2.4,8.1,2.6,12.2.3,4,.4,7.4.4,10.2v25.4h-60.7c.2-6.6.7-13.5,1.3-20.7Z"/>
      <path class="cls-4" d="M188.2,213.9c-13.7,0-22.6-5.9-22.8-20.2,0-8.4,9.5-13.6,2.3-12.6-8.4,1.2-15,6.7-19.5,20.1-2.5,7.6-3.7,26.1-3.7,55.6v71.3h22.4v5.3h-95.7v-5.3h22.2v-133.9c-.7-8.3-3.6-14.8-14.1-14.8s-12,3.6-14,4.7c-2,1.1-5.5,3.5-10.6,7l-3.4-3c6.3-5.8,12-10.2,17.1-13.1,5.1-2.9,9.3-4.3,17.6-4.3h57.1v28.7c4.8-12.2,10-20.9,15.7-25.9,5.7-5,13.1-7.5,22.2-7.5,20.4,0,29.2,13.5,29.2,24.9s-12.2,23-21.9,23h0Z"/>
      <path class="cls-1" d="M1031.5,528.9v-106.9c0-16.7-4.6-29.9-13.8-39.5-9.2-9.6-22.2-14.4-38.9-14.4s-20.9,1.7-28.4,5.1c-7.6,3.4-13.8,7.4-18.6,11.9-4.8,4.5-8.5,9.2-11,13.8-2.5,4.7-4.3,8.2-5.3,10.5h-.7v-37.9h-40c-8.4,0-23.6.2-30.5,4.3-4.9,2.9-2.5.8-8.7,6.4v6.4c2-1.2,9-9.2,19.7-8.5,10,.7,13.1,6,14,13.9v134.7h-41.7v-157.3h-51.3c-8.3,0-15,1.4-20.1,4.3-4.7,2.7-10.1,6.8-15.9,12.1-.4-.4-.8-.9-1.1-1.3l-3.4-3c-5.8-4.6-12.8-8.6-21-12.1-8.2-3.6-18-5.3-29.4-5.3s-21.7,1.5-30.9,4.5c-9.2,3-17,7.2-23.3,12.4-6.3,5.2-11.2,11.2-14.6,18.2-3.4,6.9-5.1,14.3-5.1,22.1s.8,10.4,2.5,14.6c1.6,4.2,3.6,7.9,6,11,2.4,3.2,5,6,7.8,8.3,2.8,2.4,5.3,4.5,7.6,6.3-7.8,4.3-14.1,8.9-18.8,13.7-4.7,4.8-8.2,9.4-10.4,13.8-2.3,4.4-3.7,8.3-4.4,11.6-.6,3.3-.9,5.5-.9,6.8,0,7.9,1.9,14.4,5.7,19.7,3.8,5.3,8.5,9.5,14.1,12.5,5.5,3.1,11.5,5.2,18,6.5,6.5,1.2,15.2,2.6,24.8,2.6h39.4c3.8,0,8,.5,12.5,1.5,4.6,1,8.7,2.9,12.5,5.7,3.8,2.8,6.9,6.5,9.5,11.2,2.5,4.7,3.8,10.8,3.8,18.4s-1.5,14.5-4.5,20.9c-1,2-8.4,14.8-19.9,22.9h14.1s13.4-9.5,19-17c4.8-5.6,8.6-11.7,11.5-18.4,4.1-9.3,6.1-18.9,6.1-28.8s-2-21.3-6.1-29c-.7-1.4-1.5-2.7-2.4-4h179.1v-5.3h-22.2v-81.1c0-11.6,1.3-21.7,3.8-30.3,2.5-8.6,5.9-15.8,10-21.6,4.2-5.8,9-10.2,14.6-13.1,5.5-2.9,11.4-4.3,17.4-4.3s13.2,2.4,17.5,7.4c4.3,4.9,6.4,12.7,6.4,23.3v119.8h-22.1v5.3h90.7v-5.3h-22.3ZM654,399.7c.7-5.5,2.2-10.5,4.4-14.8,2.1-4.3,5.2-7.8,9.3-10.4,4.1-2.7,9.2-4,15.6-4s12.1,1.3,15.9,3.8c3.8,2.5,6.7,6.1,8.7,10.6,2,4.5,3.3,9.9,3.8,16.1.5,6.2.8,13,.8,20.3,0,10.4-.7,18.8-2.1,25.2-1.4,6.4-3.3,11.4-5.9,14.8-2.5,3.4-5.6,5.7-9.1,6.8-3.5,1.1-7.6,1.7-12.1,1.7s-8.4-.5-12.1-1.5c-3.8-1-7-3.3-9.7-7-2.6-3.7-4.7-9-6.3-16.1-1.5-7.1-2.3-16.5-2.3-28.5s.4-11.5,1.1-17ZM781.2,528.9h-25.8s-6.3-7.3-10.4-10.2c-6.6-4.5-14.2-7.8-22.9-9.7-8.7-1.9-17.9-2.8-27.5-2.8h-41.7c-8.6,0-15.4-1.5-20.5-4.5-5-3-7.6-7.7-7.6-14s.6-5.9,1.9-9.3c1.3-3.4,5.5-7.5,12.9-12.3,5,2,11.5,4.1,19.3,6.1,7.9,2,16.8,3.1,26.9,3.1s23.3-1.6,31.9-4.7c8.6-3.2,15.6-7.3,21-12.3,5.5-5,9.4-10.7,11.8-16.9,2.4-6.2,3.6-12.5,3.6-18.8,0-10.3-1.8-18.2-5.3-23.7-2-3.1-3.9-5.8-5.8-8.2,4.7-3.3,8.1-5.5,10-6.6,2-1.1,7.5-4.7,14-4.7,11,0,13.7,7.3,14.2,16.3v133.4Z"/>
    </g>
  </g>
</svg>